# xmcd
#
# Track frame offsets:
#	150
#	12544
#	21875
#	32233
#	43402
#	53772
#	67389
#	80801
#	92002
#	103060
#	113763
#	130925
#	143580
#	155195
#	169833
#	178366
#
# Disc length: 2603 seconds
#
# Revision: 1
# Processed by: cddbd v1.4PL0 Copyright (c) Steve Scherf et al.
# Submitted via: audiograbber 1.81.03
#
DISCID=ef0a2910
DTITLE=Outlaws - The Country Collection
DYEAR=2000
DGENRE=Country
TTITLE0=I walk the line (Johnny Cash)
TTITLE1=The legend of Bonny and Clyde (Merle Haggard)
TTITLE2=Live fast, love hard, die young (Faron Young)
TTITLE3=Wreck of the old '97 (Boxcar Willie)
TTITLE4=Wings of a dove (Ferlin Husky)
TTITLE5=Heartbreak Hotel ( Willie Nelson)
TTITLE6=Liberty Valance (Gene Pitney)
TTITLE7=Take good care of her (Sonny James)
TTITLE8=Easy Lovin (Freddie Hart)
TTITLE9=Ain't life hell (Willie Nelson)
TTITLE10=Old coyote town (Don Williams)
TTITLE11=Folsom prison blues (Johnny Cash)
TTITLE12=The fugitive (Merle Haggard)
TTITLE13=Rhinestone cowboy (Glenn Campbell)
TTITLE14=Ride Jesse ride (Merle Kilgore)
TTITLE15=I saw the light (Roy Acuff)
EXTD=
EXTT0=
EXTT1=
EXTT2=
EXTT3=
EXTT4=
EXTT5=
EXTT6=
EXTT7=
EXTT8=
EXTT9=
EXTT10=
EXTT11=
EXTT12=
EXTT13=
EXTT14=
EXTT15=
PLAYORDER=
